<svg width="66" height="66" viewBox="0 0 66 66" fill="none" xmlns="http://www.w3.org/2000/svg">
<rect x="1" y="1.41" width="64" height="64" rx="32" fill="white"/>
<rect x="1" y="1.41" width="64" height="64" rx="32" stroke="#F1F5F7"/>
<mask id="mask0_25_858" style="mask-type:luminance" maskUnits="userSpaceOnUse" x="16" y="32" width="24" height="18">
<path d="M35.6657 35.4258C35.2973 35.6076 34.9149 35.7688 34.5261 35.9092C34.5192 35.9139 34.512 35.9159 34.5054 35.9188C32.6519 36.6494 30.623 37.238 28.6316 37.4045C27.2211 37.5219 25.8132 37.5699 24.4568 38.0114C23.2478 38.4045 22.1164 39.0218 21.1269 39.8193C20.2492 40.5264 19.4873 41.3734 18.8769 42.3268C18.8676 42.3383 18.8585 42.352 18.8518 42.366C18.6537 42.6972 18.4646 43.0362 18.2853 43.3789C18.2759 43.3953 18.2669 43.4114 18.2599 43.4296C17.2879 45.2811 16.5718 47.2866 16.1553 49.4003C16.4455 48.6402 16.814 47.9221 17.2535 47.2497C18.0417 46.1238 18.9233 45.1181 20.0315 44.294C20.9644 43.6006 22.0024 43.0504 23.1005 42.6691C24.3502 42.2357 25.6023 42.0898 26.9182 42.0517C27.1898 42.0441 27.4625 42.0472 27.7358 42.0497C28.1874 42.0545 28.639 42.0594 29.0843 42.0155C29.746 41.9497 30.4021 41.8273 31.0425 41.6482C32.2768 41.3023 33.4469 40.7456 34.4982 40.0127C36.6906 38.4834 38.3231 36.2043 39.0231 33.549C39.0989 33.2685 39.1612 32.9828 39.2143 32.695C38.2309 33.8254 37.0246 34.758 35.6657 35.4258Z" fill="white"/>
</mask>
<g mask="url(#mask0_25_858)">
<path d="M11.3281 34.2314L37.0942 26.0335L44.0409 47.8651L18.2748 56.0633L11.3281 34.2314Z" fill="url(#paint0_linear_25_858)"/>
</g>
<mask id="mask1_25_858" style="mask-type:luminance" maskUnits="userSpaceOnUse" x="18" y="17" width="32" height="24">
<path d="M45.141 21.0576C44.6071 21.3257 44.0536 21.5619 43.4877 21.7659C43.4779 21.7684 43.4682 21.7734 43.4606 21.7783C41.2493 22.6492 38.9424 23.274 36.5933 23.6377C34.2711 23.9973 31.9024 23.9108 29.6494 24.6784C28.0821 25.2122 26.6162 26.0237 25.3248 27.062C24.0827 28.0629 23.015 29.2732 22.1691 30.6333C21.9526 30.9998 21.7434 31.371 21.5415 31.7476C20.1694 34.3231 19.1608 37.1174 18.5801 40.0687C18.9737 39.0331 19.4779 38.0515 20.0732 37.1368C22.7568 33.0142 27.1966 30.5202 32.0717 30.1711C34.1752 30.0187 36.3052 30.1633 38.3641 29.6468C40.1842 29.1918 41.9136 28.3974 43.4508 27.3275C46.4222 25.2539 48.636 22.1646 49.5882 18.5636C49.684 18.1945 49.7677 17.8157 49.8391 17.4369C49.8412 17.4269 49.8412 17.4199 49.844 17.41C48.5381 18.9105 46.9389 20.1552 45.141 21.0576Z" fill="white"/>
</mask>
<g mask="url(#mask1_25_858)">
<path d="M12.0332 19.4934L46.9702 8.37745L56.3914 37.9859L21.4545 49.1018L12.0332 19.4934Z" fill="url(#paint1_linear_25_858)"/>
</g>
<mask id="mask2_25_858" style="mask-type:luminance" maskUnits="userSpaceOnUse" x="18" y="17" width="32" height="24">
<path d="M45.141 21.0577C44.6071 21.3258 44.0536 21.562 43.4877 21.766C43.4779 21.7685 43.4682 21.7736 43.4606 21.7784C41.2493 22.6493 38.9424 23.2741 36.5933 23.6378C34.2711 23.9974 31.9024 23.9109 29.6493 24.6785C28.0821 25.2123 26.6162 26.0238 25.3248 27.0621C24.0827 28.063 23.015 29.2733 22.1691 30.6334C21.9526 30.9999 21.7434 31.3711 21.5415 31.7477C20.1694 34.3232 19.1608 37.1175 18.5801 40.0688C18.9958 38.7507 19.532 37.501 20.164 36.3325C23.0101 31.0836 27.7182 27.9056 32.8886 27.4602C35.1196 27.2684 37.3804 27.4555 39.5643 26.7962C41.4932 26.2159 43.3254 25.2047 44.9564 23.8395C46.9514 22.1697 48.6237 19.9804 49.8392 17.4369C49.8414 17.4269 49.8413 17.4199 49.8441 17.41C48.5381 18.9106 46.9389 20.1553 45.141 21.0577Z" fill="white"/>
</mask>
<g mask="url(#mask2_25_858)">
<path d="M7.25879 28.2912L34.8301 1.7907L61.1645 29.1873L33.5936 55.6877L7.25879 28.2912Z" fill="url(#paint2_linear_25_858)"/>
</g>
<mask id="mask3_25_858" style="mask-type:luminance" maskUnits="userSpaceOnUse" x="16" y="32" width="24" height="18">
<path d="M35.7459 35.3881C35.3518 35.5855 34.9435 35.7599 34.5263 35.9104C34.519 35.9124 34.5119 35.9158 34.5062 35.9193C32.8752 36.5616 31.1737 37.0226 29.4409 37.2912C27.7283 37.5559 25.9812 37.4923 24.3192 38.0586C23.1635 38.4522 22.0822 39.0509 21.1299 39.8166C20.2136 40.5545 19.4263 41.4475 18.8023 42.4503C18.6425 42.7209 18.4885 42.9951 18.3397 43.2723C17.3274 45.172 16.5833 47.2327 16.1553 49.41C16.4618 48.4374 16.8574 47.5159 17.3236 46.654C19.4226 42.7825 22.8953 40.439 26.7086 40.1102C28.3543 39.9686 30.0216 40.1067 31.6327 39.6204C33.0551 39.1925 34.4067 38.4469 35.6092 37.4398C37.0808 36.2079 38.3145 34.5933 39.2107 32.7174C39.2127 32.7101 39.2127 32.7049 39.2144 32.6976C38.2508 33.8041 37.0718 34.722 35.7459 35.3881Z" fill="white"/>
</mask>
<g mask="url(#mask3_25_858)">
<path d="M7.9502 39.4708L29.8683 21.3763L47.4199 42.6353L25.5019 60.7298L7.9502 39.4708Z" fill="url(#paint3_linear_25_858)"/>
</g>
<defs>
<linearGradient id="paint0_linear_25_858" x1="13.7654" y1="45.4864" x2="89.8007" y2="21.2925" gradientUnits="userSpaceOnUse">
<stop stop-color="#166846"/>
<stop offset="1" stop-color="#00AA59"/>
</linearGradient>
<linearGradient id="paint1_linear_25_858" x1="10.7156" y1="36.2387" x2="86.8272" y2="12.0204" gradientUnits="userSpaceOnUse">
<stop stop-color="#166846"/>
<stop offset="1" stop-color="#00AA59"/>
</linearGradient>
<linearGradient id="paint2_linear_25_858" x1="20.0894" y1="42.3218" x2="44.8747" y2="18.4971" gradientUnits="userSpaceOnUse">
<stop stop-color="#166846"/>
<stop offset="1" stop-color="#00AA59"/>
</linearGradient>
<linearGradient id="paint3_linear_25_858" x1="16.0811" y1="50.6323" x2="34.4549" y2="35.4628" gradientUnits="userSpaceOnUse">
<stop stop-color="#166846"/>
<stop offset="1" stop-color="#00AA59"/>
</linearGradient>
</defs>
</svg>
