<svg width="18" height="21" viewBox="0 0 18 21" fill="none" xmlns="http://www.w3.org/2000/svg">
<path d="M16.5 2.41003H14.25V1.66003C14.25 1.46112 14.171 1.27036 14.0303 1.1297C13.8897 0.989052 13.6989 0.910034 13.5 0.910034C13.3011 0.910034 13.1103 0.989052 12.9697 1.1297C12.829 1.27036 12.75 1.46112 12.75 1.66003V2.41003H5.25V1.66003C5.25 1.46112 5.17098 1.27036 5.03033 1.1297C4.88968 0.989052 4.69891 0.910034 4.5 0.910034C4.30109 0.910034 4.11032 0.989052 3.96967 1.1297C3.82902 1.27036 3.75 1.46112 3.75 1.66003V2.41003H1.5C1.10218 2.41003 0.720644 2.56807 0.43934 2.84937C0.158035 3.13068 0 3.51221 0 3.91003V18.91C0 19.3079 0.158035 19.6894 0.43934 19.9707C0.720644 20.252 1.10218 20.41 1.5 20.41H16.5C16.8978 20.41 17.2794 20.252 17.5607 19.9707C17.842 19.6894 18 19.3079 18 18.91V3.91003C18 3.51221 17.842 3.13068 17.5607 2.84937C17.2794 2.56807 16.8978 2.41003 16.5 2.41003ZM3.75 3.91003V4.66003C3.75 4.85895 3.82902 5.04971 3.96967 5.19036C4.11032 5.33102 4.30109 5.41003 4.5 5.41003C4.69891 5.41003 4.88968 5.33102 5.03033 5.19036C5.17098 5.04971 5.25 4.85895 5.25 4.66003V3.91003H12.75V4.66003C12.75 4.85895 12.829 5.04971 12.9697 5.19036C13.1103 5.33102 13.3011 5.41003 13.5 5.41003C13.6989 5.41003 13.8897 5.33102 14.0303 5.19036C14.171 5.04971 14.25 4.85895 14.25 4.66003V3.91003H16.5V6.91003H1.5V3.91003H3.75ZM16.5 18.91H1.5V8.41003H16.5V18.91Z" fill="#667F93"/>
</svg>
