<svg width="48" height="48" viewBox="0 0 48 48" fill="none" xmlns="http://www.w3.org/2000/svg">
<rect x="0.5" y="0.500092" width="47" height="47" rx="15.5" stroke="#15AA7A"/>
<g clip-path="url(#clip0_25_847)">
<path d="M34.2234 12.0001H13.7719C12.7922 12.0001 12 12.7735 12 13.7298V34.2657C12 35.222 12.7922 36.0001 13.7719 36.0001H34.2234C35.2031 36.0001 36 35.222 36 34.2704V13.7298C36 12.7735 35.2031 12.0001 34.2234 12.0001ZM19.1203 32.4517H15.5578V20.9954H19.1203V32.4517ZM17.3391 19.4345C16.1953 19.4345 15.2719 18.511 15.2719 17.372C15.2719 16.2329 16.1953 15.3095 17.3391 15.3095C18.4781 15.3095 19.4016 16.2329 19.4016 17.372C19.4016 18.5063 18.4781 19.4345 17.3391 19.4345ZM32.4516 32.4517H28.8937V26.8829C28.8937 25.5563 28.8703 23.8454 27.0422 23.8454C25.1906 23.8454 24.9094 25.2938 24.9094 26.7892V32.4517H21.3563V20.9954H24.7687V22.561H24.8156C25.2891 21.661 26.4516 20.7095 28.1813 20.7095C31.7859 20.7095 32.4516 23.0813 32.4516 26.1657V32.4517Z" fill="#15AA7A"/>
</g>
<defs>
<clipPath id="clip0_25_847">
<rect width="24" height="24" fill="white" transform="translate(12 12.0001)"/>
</clipPath>
</defs>
</svg>
