<svg width="18" height="16" viewBox="0 0 18 16" fill="none" xmlns="http://www.w3.org/2000/svg">
<path d="M17.7806 8.44047L11.0306 15.1905C10.8899 15.3312 10.699 15.4103 10.5 15.4103C10.301 15.4103 10.1101 15.3312 9.96937 15.1905C9.82864 15.0497 9.74958 14.8589 9.74958 14.6598C9.74958 14.4608 9.82864 14.2699 9.96937 14.1292L15.4397 8.65984H0.75C0.551088 8.65984 0.360322 8.58082 0.21967 8.44017C0.0790178 8.29952 0 8.10875 0 7.90984C0 7.71093 0.0790178 7.52016 0.21967 7.37951C0.360322 7.23886 0.551088 7.15984 0.75 7.15984H15.4397L9.96937 1.69047C9.82864 1.54974 9.74958 1.35886 9.74958 1.15984C9.74958 0.960818 9.82864 0.769946 9.96937 0.629216C10.1101 0.488485 10.301 0.409424 10.5 0.409424C10.699 0.409424 10.8899 0.488485 11.0306 0.629216L17.7806 7.37921C17.8504 7.44887 17.9057 7.53159 17.9434 7.62263C17.9812 7.71368 18.0006 7.81128 18.0006 7.90984C18.0006 8.0084 17.9812 8.106 17.9434 8.19705C17.9057 8.28809 17.8504 8.37081 17.7806 8.44047Z" fill="#4D5F6E"/>
</svg>
