<svg width="18" height="16" viewBox="0 0 18 16" fill="none" xmlns="http://www.w3.org/2000/svg">
<path d="M17.9996 7.90984C17.9996 8.10875 17.9206 8.29952 17.7799 8.44017C17.6393 8.58082 17.4485 8.65984 17.2496 8.65984H2.55993L8.03024 14.1292C8.09992 14.1989 8.1552 14.2816 8.19291 14.3727C8.23062 14.4637 8.25003 14.5613 8.25003 14.6598C8.25003 14.7584 8.23062 14.856 8.19291 14.947C8.1552 15.0381 8.09992 15.1208 8.03024 15.1905C7.96056 15.2601 7.87783 15.3154 7.78679 15.3531C7.69574 15.3908 7.59816 15.4103 7.49961 15.4103C7.40107 15.4103 7.30349 15.3908 7.21244 15.3531C7.1214 15.3154 7.03867 15.2601 6.96899 15.1905L0.218988 8.44047C0.149256 8.37081 0.0939369 8.28809 0.0561936 8.19705C0.0184504 8.106 -0.000976562 8.0084 -0.000976562 7.90984C-0.000976562 7.81128 0.0184504 7.71368 0.0561936 7.62263C0.0939369 7.53159 0.149256 7.44887 0.218988 7.37921L6.96899 0.629216C7.10972 0.488485 7.30059 0.409424 7.49961 0.409424C7.69864 0.409424 7.88951 0.488485 8.03024 0.629216C8.17097 0.769946 8.25003 0.960818 8.25003 1.15984C8.25003 1.35886 8.17097 1.54974 8.03024 1.69047L2.55993 7.15984H17.2496C17.4485 7.15984 17.6393 7.23886 17.7799 7.37951C17.9206 7.52016 17.9996 7.71093 17.9996 7.90984Z" fill="#B3C5D4"/>
</svg>
