<svg width="48" height="48" viewBox="0 0 48 48" fill="none" xmlns="http://www.w3.org/2000/svg">
<rect x="0.5" y="0.500092" width="47" height="47" rx="15.5" stroke="#15AA7A"/>
<path d="M26.4414 17.6588C26.6495 18.541 27.4417 19.1982 28.3877 19.1982C29.492 19.1982 30.3873 18.3029 30.3873 17.1985C30.3873 16.0941 29.492 15.1988 28.3877 15.1988C27.422 15.1988 26.6167 15.8832 26.4292 16.7935C24.812 16.9669 23.5492 18.3385 23.5492 20.0007C23.5492 20.0044 23.5492 20.0073 23.5492 20.011C21.7905 20.0851 20.1845 20.5857 18.9095 21.376C18.4361 21.0094 17.8417 20.791 17.1967 20.791C15.6489 20.791 14.3945 22.0454 14.3945 23.5932C14.3945 24.7163 15.0545 25.6838 16.008 26.131C16.1008 29.3841 19.6455 32.0007 24.0058 32.0007C28.3661 32.0007 31.9155 29.3813 32.0036 26.1254C32.9495 25.6754 33.6039 24.7107 33.6039 23.5941C33.6039 22.0463 32.3495 20.7919 30.8017 20.7919C30.1595 20.7919 29.568 21.0085 29.0955 21.3723C27.8092 20.5763 26.1855 20.0757 24.4089 20.0091C24.4089 20.0063 24.4089 20.0044 24.4089 20.0016C24.4089 18.811 25.2939 17.8229 26.4414 17.6607V17.6588ZM18.797 25.3716C18.8439 24.3554 19.5189 23.5754 20.3036 23.5754C21.0883 23.5754 21.6883 24.3994 21.6414 25.4157C21.5945 26.4319 21.0086 26.8013 20.223 26.8013C19.4373 26.8013 18.7502 26.3879 18.797 25.3716ZM27.7089 23.5754C28.4945 23.5754 29.1695 24.3554 29.2155 25.3716C29.2623 26.3879 28.5742 26.8013 27.7895 26.8013C27.0048 26.8013 26.418 26.4329 26.3711 25.4157C26.3242 24.3994 26.9233 23.5754 27.7089 23.5754ZM26.7752 27.7229C26.9223 27.7379 27.0161 27.8907 26.9589 28.0276C26.4761 29.1816 25.3361 29.9926 24.0058 29.9926C22.6755 29.9926 21.5364 29.1816 21.0527 28.0276C20.9955 27.8907 21.0892 27.7379 21.2364 27.7229C22.0989 27.6357 23.0317 27.5879 24.0058 27.5879C24.9798 27.5879 25.9117 27.6357 26.7752 27.7229Z" fill="#15AA7A"/>
</svg>
