<svg width="20" height="21" viewBox="0 0 20 21" fill="none" xmlns="http://www.w3.org/2000/svg">
<path d="M19.5308 18.8794L14.8368 14.1863C16.1973 12.5529 16.8757 10.4578 16.7309 8.33694C16.5861 6.21608 15.6293 4.23268 14.0593 2.79935C12.4894 1.36602 10.4274 0.593117 8.30212 0.641417C6.17687 0.689717 4.15205 1.5555 2.64888 3.05867C1.14571 4.56184 0.279927 6.58666 0.231627 8.71192C0.183327 10.8372 0.956234 12.8992 2.38956 14.4691C3.82289 16.039 5.80629 16.9959 7.92715 17.1407C10.048 17.2855 12.1431 16.6071 13.7765 15.2466L18.4696 19.9406C18.5393 20.0103 18.622 20.0656 18.713 20.1033C18.8041 20.141 18.9017 20.1604 19.0002 20.1604C19.0988 20.1604 19.1963 20.141 19.2874 20.1033C19.3784 20.0656 19.4612 20.0103 19.5308 19.9406C19.6005 19.8709 19.6558 19.7882 19.6935 19.6972C19.7312 19.6061 19.7506 19.5085 19.7506 19.41C19.7506 19.3115 19.7312 19.2139 19.6935 19.1228C19.6558 19.0318 19.6005 18.9491 19.5308 18.8794ZM1.75021 8.91C1.75021 7.57498 2.14609 6.26994 2.88779 5.1599C3.62949 4.04987 4.6837 3.18471 5.9171 2.67382C7.1505 2.16293 8.5077 2.02925 9.81707 2.2897C11.1264 2.55015 12.3292 3.19303 13.2732 4.13703C14.2172 5.08104 14.8601 6.28377 15.1205 7.59314C15.381 8.90252 15.2473 10.2597 14.7364 11.4931C14.2255 12.7265 13.3603 13.7807 12.2503 14.5224C11.1403 15.2641 9.83524 15.66 8.50021 15.66C6.71061 15.658 4.99488 14.9462 3.72944 13.6808C2.46399 12.4153 1.7522 10.6996 1.75021 8.91Z" fill="white"/>
</svg>
