<svg width="12" height="11" viewBox="0 0 12 11" fill="none" xmlns="http://www.w3.org/2000/svg">
<path d="M11.344 0.910156V8.22266C11.344 8.44643 11.2551 8.66104 11.0968 8.81928C10.9386 8.97751 10.724 9.06641 10.5002 9.06641C10.2764 9.06641 10.0618 8.97751 9.90359 8.81928C9.74536 8.66104 9.65646 8.44643 9.65646 8.22266V2.94922L2.09717 10.5071C1.93866 10.6656 1.72368 10.7547 1.49951 10.7547C1.27535 10.7547 1.06036 10.6656 0.901854 10.5071C0.743346 10.3486 0.654297 10.1336 0.654297 9.90945C0.654297 9.68529 0.743346 9.47031 0.901854 9.3118L8.46115 1.75391H3.18771C2.96394 1.75391 2.74933 1.66501 2.59109 1.50678C2.43286 1.34854 2.34396 1.13393 2.34396 0.910156C2.34396 0.68638 2.43286 0.471769 2.59109 0.313535C2.74933 0.155301 2.96394 0.0664063 3.18771 0.0664062H10.5002C10.724 0.0664062 10.9386 0.155301 11.0968 0.313535C11.2551 0.471769 11.344 0.68638 11.344 0.910156Z" fill="white"/>
</svg>
