<svg width="31" height="37" viewBox="0 0 31 37" fill="none" xmlns="http://www.w3.org/2000/svg">
<path d="M0.678147 16.3115C0.817456 16.4509 0.982893 16.5616 1.16499 16.637C1.34709 16.7125 1.54227 16.7514 1.7394 16.7514C1.93652 16.7514 2.13171 16.7125 2.31381 16.637C2.49591 16.5616 2.66134 16.4509 2.80065 16.3115L13.7394 5.37083L13.7394 34.7502C13.7394 35.148 13.8974 35.5296 14.1787 35.8109C14.46 36.0922 14.8416 36.2502 15.2394 36.2502C15.6372 36.2502 16.0188 36.0922 16.3001 35.8109C16.5814 35.5296 16.7394 35.148 16.7394 34.7502L16.7394 5.37083L27.6781 16.3115C27.9596 16.5929 28.3414 16.751 28.7394 16.751C29.1374 16.751 29.5192 16.5929 29.8006 16.3115C30.0821 16.03 30.2402 15.6483 30.2402 15.2502C30.2402 14.8522 30.0821 14.4704 29.8006 14.189L16.3007 0.688952C16.1613 0.549487 15.9959 0.438849 15.8138 0.363363C15.6317 0.287876 15.4365 0.249022 15.2394 0.249022C15.0423 0.249022 14.8471 0.287876 14.665 0.363363C14.4829 0.438849 14.3175 0.549487 14.1782 0.688952L0.678147 14.189C0.538682 14.3283 0.428044 14.4937 0.352557 14.6758C0.27707 14.8579 0.238219 15.0531 0.238219 15.2502C0.238219 15.4473 0.27707 15.6425 0.352557 15.8246C0.428044 16.0067 0.538682 16.1721 0.678147 16.3115Z" fill="white"/>
</svg>
