<svg width="23" height="23" viewBox="0 0 23 23" fill="none" xmlns="http://www.w3.org/2000/svg">
<rect x="0.5" y="0.705002" width="22" height="22" rx="11" fill="black"/>
<path d="M15.4377 8.205V13.8925C15.4377 14.0085 15.3916 14.1198 15.3096 14.2019C15.2276 14.2839 15.1163 14.33 15.0002 14.33C14.8842 14.33 14.7729 14.2839 14.6909 14.2019C14.6088 14.1198 14.5627 14.0085 14.5627 13.8925V9.26102L8.30977 15.5145C8.22768 15.5966 8.11634 15.6427 8.00024 15.6427C7.88415 15.6427 7.7728 15.5966 7.69071 15.5145C7.60862 15.4324 7.5625 15.3211 7.5625 15.205C7.5625 15.0889 7.60862 14.9776 7.69071 14.8955L13.9442 8.6425H9.31274C9.19671 8.6425 9.08543 8.59641 9.00338 8.51436C8.92134 8.43231 8.87524 8.32103 8.87524 8.205C8.87524 8.08897 8.92134 7.97769 9.00338 7.89564C9.08543 7.8136 9.19671 7.7675 9.31274 7.7675H15.0002C15.1163 7.7675 15.2276 7.8136 15.3096 7.89564C15.3916 7.97769 15.4377 8.08897 15.4377 8.205Z" fill="white"/>
</svg>
