<svg width="20" height="21" viewBox="0 0 20 21" fill="none" xmlns="http://www.w3.org/2000/svg">
<path d="M10 0.660034C8.07164 0.660034 6.18657 1.23186 4.58319 2.30321C2.97982 3.37455 1.73013 4.89729 0.992179 6.67887C0.254225 8.46045 0.061142 10.4209 0.437348 12.3122C0.813554 14.2035 1.74215 15.9408 3.10571 17.3043C4.46928 18.6679 6.20656 19.5965 8.09787 19.9727C9.98919 20.3489 11.9496 20.1558 13.7312 19.4179C15.5127 18.6799 17.0355 17.4302 18.1068 15.8268C19.1782 14.2235 19.75 12.3384 19.75 10.41C19.7473 7.82501 18.7192 5.34665 16.8913 3.51876C15.0634 1.69087 12.585 0.662764 10 0.660034ZM10 18.66C8.36831 18.66 6.77326 18.1762 5.41655 17.2697C4.05984 16.3631 3.00242 15.0747 2.378 13.5672C1.75358 12.0597 1.5902 10.4009 1.90853 8.80054C2.22685 7.2002 3.01259 5.73019 4.16637 4.5764C5.32016 3.42262 6.79017 2.63688 8.39051 2.31856C9.99085 2.00023 11.6497 2.16361 13.1571 2.78803C14.6646 3.41245 15.9531 4.46987 16.8596 5.82658C17.7661 7.18329 18.25 8.77834 18.25 10.41C18.2475 12.5973 17.3775 14.6943 15.8309 16.2409C14.2843 17.7876 12.1873 18.6576 10 18.66ZM16 10.41C16 10.6089 15.921 10.7997 15.7803 10.9404C15.6397 11.081 15.4489 11.16 15.25 11.16H10C9.80109 11.16 9.61033 11.081 9.46967 10.9404C9.32902 10.7997 9.25 10.6089 9.25 10.41V5.16003C9.25 4.96112 9.32902 4.77036 9.46967 4.6297C9.61033 4.48905 9.80109 4.41003 10 4.41003C10.1989 4.41003 10.3897 4.48905 10.5303 4.6297C10.671 4.77036 10.75 4.96112 10.75 5.16003V9.66003H15.25C15.4489 9.66003 15.6397 9.73905 15.7803 9.8797C15.921 10.0204 16 10.2111 16 10.41Z" fill="#667F93"/>
</svg>
