<svg width="48" height="48" viewBox="0 0 48 48" fill="none" xmlns="http://www.w3.org/2000/svg">
<rect x="0.5" y="0.500092" width="47" height="47" rx="15.5" stroke="#15AA7A"/>
<g clip-path="url(#clip0_25_833)">
<path fill-rule="evenodd" clip-rule="evenodd" d="M22.9358 12.0798H25.0559C27.9677 12.0798 29.6693 12.5075 31.1798 13.3173C32.6904 14.1272 33.8824 15.3101 34.6831 16.8206C35.493 18.3311 35.9207 20.0327 35.9207 22.9446V25.0557C35.9207 27.9675 35.493 29.6691 34.6831 31.1796C33.8733 32.6901 32.6904 33.8822 31.1798 34.6829C29.6693 35.4928 27.9677 35.9205 25.0559 35.9205H22.9448C20.033 35.9205 18.3314 35.4928 16.8209 34.6829C15.3104 33.8731 14.1184 32.6901 13.3176 31.1796C12.5078 29.6691 12.0801 27.9675 12.0801 25.0557V22.9446C12.0801 20.0327 12.5078 18.3311 13.3176 16.8206C14.1275 15.3101 15.3104 14.1181 16.8209 13.3173C18.3223 12.5075 20.033 12.0798 22.9358 12.0798Z" fill="#15AA7A"/>
<path opacity="0.12" fill-rule="evenodd" clip-rule="evenodd" d="M35.9201 24.7074V25.0558C35.9201 27.9676 35.4925 29.6692 34.6826 31.1797C33.8728 32.6902 32.6898 33.8823 31.1793 34.6831C29.6688 35.4929 27.9672 35.9206 25.0554 35.9206H22.9443C20.5617 35.9206 18.9894 35.6342 17.669 35.0865L15.4922 32.8449L35.9201 24.7074Z" fill="#001A33"/>
<path fill-rule="evenodd" clip-rule="evenodd" d="M15.7343 32.9229C16.8493 33.0462 18.2433 32.7282 19.2331 32.2477C23.5312 34.6234 30.2498 34.5099 34.3167 31.9072C34.4744 31.6706 34.6218 31.4246 34.7585 31.1695C35.5714 29.6535 36.0006 27.9457 36.0006 25.0233V22.9045C36.0006 19.982 35.5714 18.2742 34.7585 16.7582C33.9549 15.2422 32.7585 14.0549 31.2425 13.2421C29.7265 12.4293 28.0187 12.0001 25.0962 12.0001H22.9683C20.4793 12.0001 18.8635 12.3134 17.5059 12.9116C17.4317 12.978 17.3589 13.0456 17.2876 13.1143C13.3047 16.9538 13.0019 25.2766 16.3793 29.7976C16.3831 29.8043 16.3873 29.811 16.3919 29.8178C16.9124 30.585 16.4101 31.9275 15.6247 32.7129C15.4969 32.8316 15.5425 32.9047 15.7343 32.9229Z" fill="white"/>
<path d="M21.8706 20.1601H17.2026V21.161H20.442L17.248 25.1193C17.148 25.2649 17.0752 25.4014 17.0752 25.7108V25.9656H21.4793C21.6977 25.9656 21.8797 25.7836 21.8797 25.5652V25.0283H18.4765L21.4793 21.2611C21.5248 21.2065 21.6067 21.1065 21.6431 21.061L21.6613 21.0336C21.8342 20.7789 21.8706 20.5605 21.8706 20.2966V20.1601Z" fill="#15AA7A"/>
<path d="M27.8123 25.9656H28.4765V20.1601H27.4756V25.6289C27.4756 25.8109 27.6212 25.9656 27.8123 25.9656Z" fill="#15AA7A"/>
<path d="M24.3911 21.4524C23.1353 21.4524 22.1162 22.4716 22.1162 23.7273C22.1162 24.983 23.1353 26.0022 24.3911 26.0022C25.6468 26.0022 26.6659 24.983 26.6659 23.7273C26.6751 22.4716 25.6559 21.4524 24.3911 21.4524ZM24.3911 25.0649C23.654 25.0649 23.0535 24.4643 23.0535 23.7273C23.0535 22.9903 23.654 22.3897 24.3911 22.3897C25.1281 22.3897 25.7287 22.9903 25.7287 23.7273C25.7287 24.4643 25.1372 25.0649 24.3911 25.0649Z" fill="#15AA7A"/>
<path d="M31.4337 21.4159C30.1688 21.4159 29.1406 22.4441 29.1406 23.7089C29.1406 24.9738 30.1688 26.002 31.4337 26.002C32.6985 26.002 33.7267 24.9738 33.7267 23.7089C33.7267 22.4441 32.6985 21.4159 31.4337 21.4159ZM31.4337 25.0648C30.6875 25.0648 30.0869 24.4642 30.0869 23.718C30.0869 22.9719 30.6875 22.3713 31.4337 22.3713C32.1798 22.3713 32.7804 22.9719 32.7804 23.718C32.7804 24.4642 32.1798 25.0648 31.4337 25.0648Z" fill="#15AA7A"/>
<path d="M26.1386 25.9654H26.6755V21.5795H25.7383V25.5742C25.7383 25.7834 25.9202 25.9654 26.1386 25.9654Z" fill="#15AA7A"/>
</g>
<defs>
<clipPath id="clip0_25_833">
<rect width="24" height="24" fill="white" transform="translate(12 12.0001)"/>
</clipPath>
</defs>
</svg>
